# xmcd
#
# Track frame offsets:
# 150
# 12522
# 26656
# 43305
# 61313
# 75698
# 90048
# 104750
# 121427
# 135470
#
# Disc length: 2155 seconds
#
#
# Revision: 0
# Processed by: cddbd v1.5.1PL2 Copyright (c) Steve Scherf et al.
# Submitted via: FreeRIP 2.943 
#
DISCID=7f08690a
DTITLE=Ted Fleming - Ted Fleming - Boleros
DYEAR=1900
DGENRE=Instrumental
TTITLE0=Sabor a mi - A. Carrillo
TTITLE1=Solamente una vez - Agustin Lara
TTITLE2=Dio,  comme ti amo! - Domenico Modugno
TTITLE3=Abrazame a sí - M. clavel
TTITLE4=el dia que me quieras - c. Gardel, A. LePera
TTITLE5=Perfídia -  A. dominguez
TTITLE6=Caminito - G.G.Pernaloza, J.D.Filiberto
TTITLE7=La barca - R. Cantoral
TTITLE8=Tue me acostumbraste - F. dominguez
TTITLE9=Canzone per te - S. Endrigo. M. Dardotti
EXTD=
EXTT0=
EXTT1=
EXTT2=
EXTT3=
EXTT4=
EXTT5=
EXTT6=
EXTT7=
EXTT8=
EXTT9=
PLAYORDER=
